{"title":"Tricky Masseur - Valentina","uid":7856496,"size":840570220,"categoryP":"porn","categoryS":"movie_clips","magnet":"?xt=urn:btih:82654ab0e7a8bb61ec2bff3b531dc60c0bf67fc8&amp;dn=Tricky+Masseur+-+Valentina&amp;tr=udp%3A%2F%2Ftracker.openbittorrent.com%3A80&amp;tr=udp%3A%2F%2Fopen.demonii.com%3A1337&amp;tr=udp%3A%2F%2Ftracker.coppersurfer.tk%3A6969&amp;tr=udp%3A%2F%2Fexodus.desync.com%3A6969","seeders":0,"leechers":3,"uploader":"athklym","files":1,"time":1353780155,"description":" &lt;a href=&quot;http://bayimg.com/iagnbaAeF&quot; rel=&quot;nofollow&quot; target=&quot;_NEW&quot;&gt;http://bayimg.com/iagnbaAeF&lt;/a&gt;\n\nTeen Valentina is very cute with her beautiful long hair, sweet pink top, sexy denim mini skirt that barely hides her ass and pussy. She was supposed to get a relaxing massage, but very soon she became horny and her masseur decided to go on with his massage... He starts licking her sweet teen pussy and then he gives Valentina his erected pecker. Then the masseur fucks her tight snatch as hard as he can - Valentina will be satisfied with this massage.\n\nTricky_Masseur_Valentina.wmv\nFormat                                   : Windows Media\nFile size                                : 802 MiB\nDuration                                 : 23mn 34s\nOverall bit rate mode                    : Constant\nOverall bit rate                         : 4 755 Kbps\nMaximum Overall bit rate                 : 4 774 Kbps\nPerformer                                : Royal-Cash.com\nEncoded date                             : UTC 2011-08-30 12:17:06.890\nCopyright                                : Royal-Cash.com\n\nVideo\nID                                       : 2\nFormat                                   : VC-1\nFormat profile                           : MP@HL\nCodec ID                                 : WMV3\nCodec ID/Info                            : Windows Media Video 9\nCodec ID/Hint                            : WMV3\nDescription of the codec                 : Windows Media Video 9 - Professional\nDuration                                 : 23mn 34s\nBit rate mode                            : Constant\nBit rate                                 : 4 608 Kbps\nWidth                                    : 1 280 pixels\nHeight                                   : 720 pixels\nDisplay aspect ratio                     : 16:9\nFrame rate                               : 25.000 fps\nBit depth                                : 8 bits\nScan type                                : Progressive\nCompression mode                         : Lossy\nBits/(Pixel*Frame)                       : 0.200\nStream size                              : 777 MiB (97%)\nLanguage                                 : English (US)\nNumberOfFrames                           : 35347\n\nAudio\nID                                       : 1\nFormat                                   : WMA\nFormat version                           : Version 2\nCodec ID                                 : 161\nCodec ID/Info                            : Windows Media Audio\nDescription of the codec                 : Windows Media Audio 9.1 - 128 kbps, 44 kHz, stereo 1-pass CBR\nDuration                                 : 23mn 34s\nBit rate mode                            : Constant\nBit rate                                 : 128 Kbps\nChannel(s)                               : 2 channels\nSampling rate                            : 44.1 KHz\nBit depth                                : 16 bits\nStream size                              : 21.6 MiB (3%)\nLanguage                                 : English (US)\nNumberOfFrames                           : 3809\n\n","torrent":{"xt":"urn:btih:82654ab0e7a8bb61ec2bff3b531dc60c0bf67fc8","amp;dn":"Tricky+Masseur+-+Valentina","amp;tr":["udp%3A%2F%2Ftracker.openbittorrent.com%3A80","udp%3A%2F%2Fopen.demonii.com%3A1337","udp%3A%2F%2Ftracker.coppersurfer.tk%3A6969","udp%3A%2F%2Fexodus.desync.com%3A6969"],"infoHash":"82654ab0e7a8bb61ec2bff3b531dc60c0bf67fc8","infoHashBuffer":{"type":"Buffer","data":[130,101,74,176,231,168,187,97,236,43,255,59,83,29,198,12,11,246,127,200]},"announce":[],"urlList":[]}}